<?xml version="1.0" standalone="no"?>
<!DOCTYPE svg PUBLIC "-//W3C//DTD SVG 20010904//EN"
        "http://www.w3.org/TR/2001/REC-SVG-20010904/DTD/svg10.dtd">
<svg version="1.0" xmlns="http://www.w3.org/2000/svg"
     width="700.000000pt" height="700.000000pt" viewBox="0 0 700.000000 700.000000"
     preserveAspectRatio="xMidYMid meet">
    <metadata>
        Created by potrace 1.11, written by Peter Selinger 2001-2013
    </metadata>
    <g transform="translate(0.000000,700.000000) scale(0.100000,-0.100000)"
       fill="#000000" stroke="none">
        <path d="M3458 6935 c-2 -1 -79 -6 -173 -9 -176 -8 -198 -10 -277 -20 -27 -3
-69 -9 -95 -12 -173 -21 -475 -97 -648 -162 -357 -135 -691 -348 -939 -598
-410 -415 -699 -936 -856 -1540 -42 -164 -41 -157 -70 -326 -12 -64 -22 -125
-24 -135 -2 -10 -7 -54 -11 -98 -4 -44 -9 -89 -11 -100 -23 -125 -23 -830 0
-951 2 -11 7 -48 10 -84 4 -36 11 -90 16 -120 5 -30 12 -73 15 -95 43 -306
167 -705 312 -1005 193 -400 433 -710 749 -970 57 -47 190 -143 210 -152 13
-6 24 -15 24 -20 0 -4 4 -8 8 -8 5 0 47 -23 93 -51 155 -93 363 -186 564 -252
77 -25 297 -82 360 -92 17 -3 55 -10 85 -15 123 -21 214 -32 390 -45 68 -5
482 -6 530 -1 19 2 71 7 115 11 44 3 89 8 100 10 11 2 47 7 80 10 32 4 62 8
65 10 3 1 28 6 55 10 274 36 685 180 950 332 91 53 257 161 297 195 15 13 42
34 60 48 65 50 185 159 263 241 462 483 769 1113 894 1839 6 30 13 73 16 95 3
22 7 51 10 65 2 14 7 57 10 95 4 39 9 84 11 100 20 188 25 594 10 835 -4 74
-9 137 -11 140 -2 3 -6 43 -10 90 -4 47 -9 88 -10 91 -2 3 -7 28 -11 55 -3 27
-7 56 -9 64 -2 8 -10 56 -20 105 -94 505 -319 1007 -620 1385 -62 77 -294 316
-355 365 -268 216 -546 369 -870 478 -92 31 -226 71 -278 82 -224 48 -357 69
-562 90 -25 2 -119 7 -210 10 -91 3 -179 8 -197 9 -18 2 -33 3 -35 1z m362
-798 c14 -3 45 -8 70 -11 25 -3 59 -8 75 -11 17 -3 41 -7 55 -9 14 -2 64 -13
111 -25 511 -124 914 -414 1217 -876 154 -235 304 -614 347 -874 3 -19 7 -37
9 -40 2 -3 7 -28 10 -56 4 -27 9 -57 11 -65 2 -8 7 -42 10 -75 4 -33 9 -71 11
-85 21 -148 21 -611 -1 -810 -3 -25 -7 -66 -10 -93 -7 -67 -13 -105 -40 -247
-26 -139 -28 -148 -44 -205 -6 -22 -12 -49 -14 -60 -2 -11 -7 -27 -10 -35 -3
-8 -18 -55 -33 -105 -38 -130 -123 -343 -186 -470 -74 -147 -92 -179 -100
-183 -5 -2 -8 -8 -8 -13 0 -17 -111 -190 -173 -267 -82 -104 -205 -225 -305
-300 -45 -34 -84 -62 -86 -62 -2 0 -34 -18 -72 -41 -179 -109 -474 -209 -695
-235 -30 -3 -57 -8 -60 -10 -12 -7 -239 -18 -364 -18 -125 1 -313 10 -365 18
-14 3 -50 7 -80 11 -143 15 -415 83 -525 130 -22 9 -48 18 -58 20 -68 14 -337
174 -446 265 -383 319 -686 905 -777 1505 -3 22 -8 43 -10 46 -2 3 -6 39 -10
80 -3 41 -9 101 -14 134 -19 148 -16 688 4 815 3 14 7 53 10 86 7 71 12 108
31 219 97 564 310 1009 640 1337 322 320 727 528 1159 594 21 3 48 7 60 10 11
2 55 7 96 10 41 4 77 8 79 10 6 5 452 -4 481 -9z"/>
    </g>
</svg>
