<svg viewBox="0 0 490 512" xmlns="http://www.w3.org/2000/svg" fill-rule="evenodd" clip-rule="evenodd" stroke-linejoin="round" stroke-miterlimit="1.414"><path d="M439.825 292.232l43.979 25.393c5.022 2.899 7.354 8.896 5.633 14.436-11.424 36.791-30.928 70.03-56.437 97.637-3.919 4.242-10.306 5.213-15.307 2.326l-43.946-25.388a197.69 197.69 0 0 1-62.701 36.263v50.769c0 5.779-4.04 10.829-9.677 12.096-36.074 8.103-74.818 8.522-112.712.007-5.665-1.273-9.704-6.293-9.704-12.101v-50.771a197.687 197.687 0 0 1-62.702-36.263l-43.945 25.388c-5.001 2.887-11.389 1.916-15.307-2.326-25.508-27.607-45.013-60.846-56.437-97.637-1.721-5.539.611-11.536 5.633-14.436l43.98-25.393a199.788 199.788 0 0 1 0-72.463L6.196 194.376c-5.022-2.899-7.354-8.896-5.633-14.436C11.987 143.149 31.491 109.91 57 82.303c3.919-4.242 10.306-5.213 15.307-2.326l43.946 25.388a197.69 197.69 0 0 1 62.701-36.263v-50.77c0-5.779 4.04-10.829 9.677-12.096 36.074-8.103 74.818-8.522 112.712-.007 5.665 1.273 9.704 6.293 9.704 12.101v50.771a197.687 197.687 0 0 1 62.702 36.263l43.945-25.388c5.001-2.887 11.389-1.916 15.307 2.326 25.508 27.607 45.013 60.846 56.437 97.637 1.721 5.539-.611 11.536-5.633 14.436l-43.98 25.393a199.794 199.794 0 0 1 0 72.464zM327.558 256c0-45.535-37.035-82.58-82.558-82.58-45.523 0-82.558 37.045-82.558 82.58s37.035 82.58 82.558 82.58c45.523 0 82.558-37.045 82.558-82.58z" fill="#fff" fill-rule="nonzero"/></svg>