<svg viewBox="0 0 512 512" xmlns="http://www.w3.org/2000/svg" fill-rule="evenodd" clip-rule="evenodd" stroke-linejoin="round" stroke-miterlimit="1.414"><path d="M256 0C114.615 0 0 114.615 0 256s114.615 256 256 256 256-114.615 256-256S397.385 0 256 0zm0 462.452c-114.098 0-206.452-92.337-206.452-206.452 0-114.097 92.337-206.452 206.452-206.452 114.098 0 206.452 92.337 206.452 206.452 0 114.098-92.337 206.452-206.452 206.452zm110.814-104.325c-9.924 10.026-46.999 42.732-107.422 42.732-85.089 0-145.016-63.407-145.016-146.134 0-81.705 62.22-143.898 144.271-143.898 57.322 0 91.6 27.479 100.741 35.901 4.416 4.062 5.266 10.784 1.998 15.817l-18.74 29.019c-3.965 6.142-12.352 7.517-18.064 3.016-8.872-6.995-32.84-23.265-63.698-23.265-49.862 0-80.43 36.469-80.43 82.665 0 42.93 27.756 86.392 80.802 86.392 33.711 0 58.677-19.654 67.846-28.104 5.44-5.013 14.035-4.169 18.395 1.794l20.506 28.047c3.596 4.88 3.088 11.723-1.189 16.018z" fill="#fff" fill-rule="nonzero"/></svg>