<svg viewBox="0 0 512 448" xmlns="http://www.w3.org/2000/svg" fill-rule="evenodd" clip-rule="evenodd" stroke-linejoin="round" stroke-miterlimit="1.414"><path d="M504.971 327.029c9.373 9.373 9.373 24.569 0 33.941l-80 79.984c-15.01 15.01-40.971 4.49-40.971-16.971V384h-58.785a12.008 12.008 0 0 1-8.773-3.812l-70.556-75.596 53.333-57.143L352 304h32v-39.981c0-21.438 25.943-31.998 40.971-16.971l80 79.981zM12 144h84l52.781 56.551 53.333-57.143-70.556-75.596A12.004 12.004 0 0 0 122.785 64H12C5.373 64 0 69.373 0 76v56c0 6.627 5.373 12 12 12zm372 0v39.984c0 21.46 25.961 31.98 40.971 16.971l80-79.984c9.373-9.373 9.373-24.569 0-33.941l-80-79.981C409.943-7.979 384 2.582 384 24.019V64h-58.785a12.008 12.008 0 0 0-8.773 3.812L96 304H12c-6.627 0-12 5.373-12 12v56c0 6.627 5.373 12 12 12h110.785c3.326 0 6.503-1.381 8.773-3.812L352 144h32z" fill="#fff" fill-rule="nonzero"/></svg>