<svg viewBox="0 0 512 512" xmlns="http://www.w3.org/2000/svg" fill-rule="evenodd" clip-rule="evenodd" stroke-linejoin="round" stroke-miterlimit="1.414"><path d="M256.521 512C109.723 512-4.301 392.052.125 249.703 3.075 167.948 45.65 92.594 122.896 42.839c.316 0 2.002-.62 1.159.826-6.112 5.677-117.291 133.987-14.859 233.703 52.481 51.097 94.845 2.58 94.845 2.58 40.572-51.716-.633-129.961-.633-129.961-10.538-25.703-48.16-41.393-48.16-41.393l30.351-32.826c25.713 10.838 45.525 39.948 45.525 39.948.843-30.555-23.079-63.381-23.079-63.381L255.046 0l46.685 51.716c-21.604 29.729-23.079 64.619-23.079 64.619 14.543-23.741 45.841-40.567 45.841-40.567l30.034 32.826c-28.875 9.187-47.843 41.187-47.843 41.187-16.651 29.419-28.559 92.284.632 131.406 34.144 46.039 92.421-2.89 92.421-2.89 108.228-94.865-11.066-232.258-11.066-232.258-6.428-5.678.844-2.891.844-2.891 52.796 37.678 120.768 87.123 122.455 211.407C514.077 404.852 406.692 512 256.521 512z" fill="#fff" fill-rule="nonzero"/></svg>